<?xml version="1.0" standalone="no"?>
<!DOCTYPE svg PUBLIC "-//W3C//DTD SVG 20010904//EN"
 "http://www.w3.org/TR/2001/REC-SVG-20010904/DTD/svg10.dtd">
<svg version="1.0" xmlns="http://www.w3.org/2000/svg"
 width="512.000000pt" height="512.000000pt" viewBox="0 0 512.000000 512.000000"
 preserveAspectRatio="xMidYMid meet">
<metadata>
Created by potrace 1.11, written by Peter Selinger 2001-2013
</metadata>
<g transform="translate(0.000000,512.000000) scale(0.100000,-0.100000)"
fill="#000000" stroke="none">
<path d="M0 2560 l0 -2560 2560 0 2560 0 0 2560 0 2560 -2560 0 -2560 0 0
-2560z m3140 1653 c0 -144 119 -252 418 -380 l135 -57 26 32 c89 106 145 251
146 374 l0 78 229 0 229 0 -7 -72 c-16 -176 -95 -356 -229 -520 -26 -32 -47
-59 -47 -61 0 -2 25 -21 55 -42 76 -52 169 -155 205 -225 89 -177 76 -410 -35
-598 -100 -171 -270 -294 -495 -360 -116 -33 -390 -43 -523 -18 -310 59 -547
244 -641 501 -38 105 -48 291 -21 395 23 89 95 222 163 303 53 62 178 177 194
177 4 0 -30 37 -75 83 -120 120 -177 242 -177 379 l0 58 225 0 225 0 0 -47z
m-1350 -423 c262 -63 464 -238 546 -475 26 -73 28 -93 29 -225 0 -125 -3 -155
-23 -220 -46 -145 -115 -253 -243 -377 -95 -93 -174 -152 -447 -335 -303 -203
-408 -310 -428 -436 l-7 -42 597 0 596 0 0 -195 0 -195 -839 0 -840 0 -8 58
c-4 31 -7 113 -7 182 2 151 23 244 88 375 106 215 263 364 702 665 163 111
318 258 355 335 17 37 25 71 27 130 7 147 -51 246 -182 311 -163 80 -358 49
-512 -81 -38 -33 -116 -123 -140 -163 -1 -2 -79 47 -173 108 -107 70 -168 116
-164 124 187 320 506 496 873 481 64 -3 153 -14 200 -25z m2373 -1683 c29 -21
50 -162 50 -342 0 -238 -32 -363 -178 -695 -40 -91 -76 -175 -80 -187 l-6 -23
-485 0 -485 0 -15 38 c-9 20 -42 96 -74 167 -105 233 -139 331 -165 479 -29
167 -11 490 31 553 l14 23 688 0 c539 0 692 -3 705 -13z"/>
<path d="M3211 3500 c-119 -117 -173 -229 -173 -360 0 -135 61 -248 175 -321
86 -56 152 -74 267 -72 240 3 410 146 410 346 0 154 -96 235 -476 402 l-144
64 -59 -59z"/>
<path d="M2820 1936 c-13 -83 -9 -343 4 -377 6 -15 13 -14 65 7 146 59 288 55
541 -16 226 -64 315 -81 425 -82 96 0 195 13 223 31 21 13 32 76 38 216 3 83
0 161 -8 215 l-13 85 -631 3 -632 2 -12 -84z"/>
</g>
</svg>
