<?xml version="1.0" encoding="UTF-8"?>
<svg width="94px" height="82px" viewBox="0 0 94 82" version="1.1" xmlns="http://www.w3.org/2000/svg" xmlns:xlink="http://www.w3.org/1999/xlink">
    <!-- Generator: sketchtool 52.3 (67297) - http://www.bohemiancoding.com/sketch -->
    <title>4719F1F2-6BA0-4D34-A931-DB2D83BD243D</title>
    <desc>Created with sketchtool.</desc>
    <g id="Page-1" stroke="none" stroke-width="1" fill="none" fill-rule="evenodd">
        <g id="Main_ru_kak_rabotaet28@2x" transform="translate(-241.000000, -271.000000)">
            <g id="iconfinder_cursor-laptop-computer-screen-technology_3201612" transform="translate(238.000000, 262.000000)">
                <g id="_x36_4px_boxes">
                    <rect id="Rectangle" x="0" y="0" width="100" height="100"></rect>
                </g>
                <g id="Production" transform="translate(2.562500, 9.375000)" fill="#D9B680" fill-rule="nonzero">
                    <path d="M34.9465625,23.5228125 C35.8346875,32.5209375 40.8946875,42.509375 41.108125,42.930625 C41.68125,44.0721875 43.3340625,43.9984375 43.824375,42.83 L45.7775,38.188125 C49.2625,40.9865625 52.6378125,43.3715625 53.4128125,43.5820312 C55.67875,44.2095312 57.35125,42.1723437 56.5896875,40.3607813 C56.324375,39.7398437 53.90125,36.2623437 51.2278125,32.7498437 L55.9,30.7601563 C57.068125,30.2617188 57.1315625,28.6239063 55.9946875,28.0454688 C55.585625,27.8379688 45.8871875,22.9414062 36.606875,21.8870313 C35.72,21.7578125 34.8465625,22.5384375 34.9465625,23.5228125 Z M84.9375,58.96 L84.9375,8.49625 C84.9375,5.4290625 82.70375,2.9359375 79.6825,2.4415625 C79.071875,2.340625 64.5821875,0 47.4559375,0 C30.3140625,0 15.796875,2.340625 15.1896875,2.4415625 C12.1653125,2.9359375 9.9375,5.4290625 9.9375,8.49625 L9.9375,58.9721875 C3.6875,61.2975 0.55625,63.934375 0.55625,69.8271875 C0.55625,81.06375 11.0484375,81.25 47.434375,81.25 C83.820625,81.25 94.3246875,81.06375 94.3246875,69.8271875 C94.3246875,63.9221875 91.1875,61.2884375 84.9375,58.96 Z M72.4375,56.25 L22.4375,56.25 L22.4375,13.6475 C28.6875,12.980625 37.2996875,12.0834375 47.44375,12.0834375 C57.5753125,12.0834375 66.1875,12.980625 72.4375,13.6475 L72.4375,56.25 Z" id="Shape"></path>
                </g>
            </g>
        </g>
    </g>
</svg>