<!-- Generated by IcoMoon.io -->
<svg version="1.1" xmlns="http://www.w3.org/2000/svg" width="1024" height="1024" viewBox="0 0 1024 1024">
<title></title>
<g id="icomoon-ignore">
</g>
<path d="M170.667 0c-94.257 0-170.667 76.41-170.667 170.667v682.666c0 94.255 76.41 170.667 170.667 170.667h682.666c94.255 0 170.667-76.412 170.667-170.667v-682.666c0-94.257-76.412-170.667-170.667-170.667h-682.666zM256 512c0-141.161 114.839-256 256-256 141.158 0 256 114.839 256 256 0 141.154-114.842 255.987-256 255.987-141.161 0-256-114.833-256-255.987zM832 128c35.345 0 64 28.654 64 64s-28.655 64-64 64c-35.345 0-64-28.654-64-64s28.655-64 64-64z"></path>
<path d="M512 384c70.692 0 128 57.308 128 128s-57.308 128-128 128c-70.692 0-128-57.308-128-128s57.308-128 128-128z"></path>
</svg>
