<?xml version="1.0" encoding="UTF-8"?>
<svg width="82px" height="82px" viewBox="0 0 82 82" version="1.1" xmlns="http://www.w3.org/2000/svg" xmlns:xlink="http://www.w3.org/1999/xlink">
    <!-- Generator: sketchtool 52.3 (67297) - http://www.bohemiancoding.com/sketch -->
    <title>F559D4B3-35C0-489B-AC62-354DEAF6FFAC</title>
    <desc>Created with sketchtool.</desc>
    <g id="Page-1" stroke="none" stroke-width="1" fill="none" fill-rule="evenodd">
        <g id="Main_ru_kak_rabotaet28@2x" transform="translate(-526.000000, -255.000000)">
            <g id="iconfinder_security-access-unlock-lock-key-safe_3201621" transform="translate(526.000000, 255.000000)">
                <g id="_x36_4px_boxes" transform="translate(12.280702, 4.380952)">
                    <rect id="Rectangle" x="0" y="0" width="87.7192982" height="87.6190476"></rect>
                </g>
                <g id="Production" transform="translate(0.109649, 0.109524)" fill="#D9B680" fill-rule="nonzero">
                    <path d="M77.9429841,60.3155833 L58.3392286,40.7398452 C59.5897769,37.4322262 60.3070192,33.8612024 60.3070192,30.1163095 C60.3015368,13.4873095 46.8070192,0.00410714286 30.1535104,0 C13.4971234,0.00136904762 -0.0054807872,13.4873095 1.66893829e-06,30.1190476 C-0.00273955913,46.7536607 13.4971234,60.2367262 30.148028,60.2380952 C33.9014545,60.2380952 37.4750565,59.5355 40.7893383,58.2852857 L48.2367067,65.713875 L60.3055115,65.713875 L60.3055115,77.7402738 L60.4185872,77.8525357 C65.2693273,82.6962262 73.0863504,82.695131 77.9425729,77.8539048 C82.7881047,73.0154167 82.7885159,65.1609167 77.9429841,60.3155833 Z M29.7682308,29.7285952 C25.6670795,33.8250595 19.9250291,34.7234286 16.9344863,31.7394524 C13.947096,28.7458929 14.84663,23.015881 18.9425729,18.9194167 C23.040983,14.8295238 28.7830335,13.9325238 31.7759063,16.9165 C34.7631596,19.9044464 33.8637626,25.6376071 29.7682308,29.7285952 Z" id="Shape"></path>
                </g>
            </g>
        </g>
    </g>
</svg>