<svg width="18" height="23" viewBox="0 0 18 23" fill="none" xmlns="http://www.w3.org/2000/svg">
<path fill-rule="evenodd" clip-rule="evenodd" d="M14.995 10.2499H15.7284C16.5568 10.2499 17.25 11.0905 17.25 11.9255V19.9869C17.25 20.6947 16.6877 21.3081 16.0021 21.4623C13.6829 21.9849 11.377 22.2501 9.00034 22.2501C6.62366 22.2501 4.24249 21.9849 1.92326 21.4623C1.23761 21.3081 0.75 20.6948 0.75 19.9869V11.9643C0.75 11.1294 1.38548 10.2499 2.21385 10.2499H3.00221L3.00334 6.45071C3.00334 2.83361 5.41414 0.484985 9.00191 0.484985C12.5896 0.484985 15.0004 2.84115 15.0004 6.459L14.995 10.2499ZM6.71561 10.2499H11.267L11.2724 6.4485C11.2724 5.4777 11.0176 4.21339 9.00195 4.21339C6.98633 4.21339 6.71677 5.4852 6.71677 6.459L6.71561 10.2499Z" fill="white"/>
</svg>
