<?xml version="1.0" encoding="UTF-8"?>
<svg width="88px" height="79px" viewBox="0 0 88 79" version="1.1" xmlns="http://www.w3.org/2000/svg" xmlns:xlink="http://www.w3.org/1999/xlink">
    <!-- Generator: sketchtool 52.3 (67297) - http://www.bohemiancoding.com/sketch -->
    <title>9DCC6380-EE75-432A-BFB4-BFAA7AA88F98</title>
    <desc>Created with sketchtool.</desc>
    <g id="Page-1" stroke="none" stroke-width="1" fill="none" fill-rule="evenodd">
        <g id="Main_ru_kak_rabotaet28@2x" transform="translate(-820.000000, -252.000000)">
            <g id="iconfinder_play-camera-reel-video_3201583" transform="translate(814.000000, 240.000000)">
                <g id="_x36_4px_boxes">
                    <rect id="Rectangle" x="0" y="0" width="100" height="100"></rect>
                </g>
                <g id="Production" transform="translate(6.250000, 12.500000)" fill="#D9B680" fill-rule="nonzero">
                    <path d="M85.3989062,14.5710938 C84.2423438,7.71984375 78.7371875,2.46171875 71.8857812,1.66515625 C53.2245313,-0.50140625 34.2792187,-0.50140625 15.6176562,1.66515625 C8.76640625,2.46171875 3.26125,7.71984375 2.10453125,14.5710938 C-0.63609375,30.8232813 -0.63609375,47.3026563 2.10453125,63.5548438 C3.26109375,70.4060938 8.76640625,75.6642188 15.6176562,76.4607813 C33.88375,78.5821875 52.6679688,78.6926563 71.8857812,76.4607813 C78.7370312,75.6642188 84.2423438,70.4060938 85.3989062,63.5548438 C88.1395313,47.3026563 88.1395313,30.8232813 85.3989062,14.5710938 Z M62.0560937,41.4401563 C61.5314062,41.8935938 49.0404687,52.6264063 32.6676562,59.3878125 C30.6439062,60.2215625 28.3815625,58.8553125 28.1939062,56.665625 C27.2284375,46.71625 27.21625,31.555625 28.1939062,21.308125 C28.3823437,19.1103125 30.6564062,17.7496875 32.6676562,18.5828125 C49.0404687,25.3440625 61.5314062,36.076875 62.0560937,36.5303125 C63.54375,37.8190625 63.5498437,40.1459375 62.0560937,41.4401563 Z" id="Shape"></path>
                </g>
            </g>
        </g>
    </g>
</svg>