<!-- Generated by IcoMoon.io -->
<svg version="1.1" xmlns="http://www.w3.org/2000/svg" width="1024" height="1024" viewBox="0 0 1024 1024">
<title></title>
<g id="icomoon-ignore">
</g>
<path fill="#fff" d="M1024 512c0 282.77-229.23 512-512 512s-512-229.23-512-512c0-282.77 229.23-512 512-512s512 229.23 512 512z"></path>
<path fill="#040406" d="M585.145 502.954c-2.044-2.276-54.206-55.819-114.608-89.73-8.58-4.817-19.22 1.049-19.831 10.911-3.401 55.072-3.196 125.085 0 175.736 0.631 9.845 11.224 15.723 19.831 10.911 60.401-33.904 112.563-87.446 114.608-89.714 4.633-5.142 4.633-12.981 0-18.115z"></path>
</svg>
