<svg width="70" height="76" viewBox="0 0 70 76" fill="none" xmlns="http://www.w3.org/2000/svg">
<path fill-rule="evenodd" clip-rule="evenodd" d="M66.997 10.7515C66.6797 10.688 62.1875 9.797 55 9.045V5.5C55 2.73875 52.7612 0.5 50 0.5C47.2388 0.5 45.0122 2.73875 45.0122 5.5L45.0245 15.5C45.0245 16.977 45.6542 18.293 46.6722 19.2085C42.892 19.4692 40 16.484 40 13V8.07325C35.3515 7.94725 30.6122 7.9725 25 8.26375V5.5C25 2.73875 22.7612 0.5 20 0.5C17.2388 0.5 15.0122 2.73875 15.0122 5.5V15.5C15.0122 16.977 15.6543 18.293 16.6723 19.2085C12.892 19.4692 10 16.484 10 13V9.63325C5.77625 10.1973 3.23725 10.7028 3.003 10.7515C1.255 11.1055 0 12.6435 0 14.4257V69.0205C0 70.7858 1.2305 72.314 2.959 72.685C20.0595 76.3717 49.661 76.432 67.041 72.685C68.7695 72.314 70 70.7858 70 69.0205V14.4257C70 12.6435 68.745 11.1055 66.997 10.7515ZM40 35.5H30V45.5H40V35.5ZM45 50.5V60.5H55V50.5H45ZM55 35.5V45.5H45V35.5H55ZM7.5 66.208C25.456 69.1605 45.3665 69.0338 62.5 66.2105V30.4513H7.5V66.208ZM25 50.5H15V60.5H25V50.5ZM30 50.5H40V60.5H30V50.5Z" fill="#D9B680"/>
</svg>
