<!-- Generated by IcoMoon.io -->
<svg version="1.1" xmlns="http://www.w3.org/2000/svg" width="1024" height="1024" viewBox="0 0 1024 1024">
<title></title>
<g id="icomoon-ignore">
</g>
<path d="M385.154 889.411c-30.507 0-25.323-11.52-35.844-40.57l-89.711-295.246 690.554-409.669z"></path>
<path d="M385.147 889.411c23.542 0 33.943-10.768 47.082-23.544l125.556-122.085-156.613-94.442z"></path>
<path d="M401.157 649.366l379.491 280.369c43.307 23.898 74.558 11.524 85.344-40.203l154.472-727.929c15.818-63.407-24.169-92.166-65.598-73.357l-907.054 349.757c-61.915 24.834-61.554 59.376-11.286 74.768l232.771 72.651 538.892-339.978c25.439-15.427 48.787-7.133 29.624 9.875z"></path>
</svg>
