<svg width="23" height="23" viewBox="0 0 23 23" fill="none" xmlns="http://www.w3.org/2000/svg">
<path fill-rule="evenodd" clip-rule="evenodd" d="M16.5921 0.00012207C12.9847 0.00012207 10.5607 2.3301 10.5607 6.02716L10.5593 10.7945L1.48651 10.8095C0.653612 10.8095 0.0150792 11.6469 0.0150792 12.5004L0.000411987 20.6867C0.000411987 21.4103 0.490501 22.037 1.17986 22.1949C3.51176 22.7291 5.90587 23.0002 8.29549 23.0002C10.6851 23.0002 12.9965 22.7291 15.3284 22.1949C16.0176 22.037 16.5832 21.4103 16.5832 20.6867L16.5759 12.4607C16.5759 11.6072 15.8785 10.8095 15.0456 10.8095L14.3224 10.7945L14.3238 6.02792C14.3238 5.03256 14.5655 3.76426 16.5921 3.76426C18.6188 3.76426 18.8603 5.03256 18.8603 6.0234L18.8544 11.8631C18.8517 12.93 19.6791 13.8 20.7205 13.8C20.7219 13.8 20.7234 13.8 20.7248 13.8C21.764 13.8 22.6075 12.9378 22.6101 11.8721L22.6234 6.02819C22.6234 2.33041 20.1994 0.00012207 16.5921 0.00012207Z" fill="#D9B680"/>
</svg>
