<?xml version="1.0" encoding="UTF-8" standalone="no"?>
<!-- Created with Inkscape (http://www.inkscape.org/) -->

<svg
   xmlns:dc="http://purl.org/dc/elements/1.1/"
   xmlns:cc="http://creativecommons.org/ns#"
   xmlns:rdf="http://www.w3.org/1999/02/22-rdf-syntax-ns#"
   xmlns:svg="http://www.w3.org/2000/svg"
   xmlns="http://www.w3.org/2000/svg"
   xmlns:sodipodi="http://sodipodi.sourceforge.net/DTD/sodipodi-0.dtd"
   xmlns:inkscape="http://www.inkscape.org/namespaces/inkscape"
   width="100.96231mm"
   height="32.675247mm"
   viewBox="0 0 100.96231 32.675247"
   version="1.1"
   id="svg8"
   inkscape:version="0.92.3 (2405546, 2018-03-11)"
   sodipodi:docname="visa.svg">
  <defs
     id="defs2" />
  <sodipodi:namedview
     id="base"
     pagecolor="#ffffff"
     bordercolor="#666666"
     borderopacity="1.0"
     inkscape:pageopacity="0.0"
     inkscape:pageshadow="2"
     inkscape:zoom="1.6782738"
     inkscape:cx="109.34292"
     inkscape:cy="-25.809553"
     inkscape:document-units="mm"
     inkscape:current-layer="layer1"
     showgrid="false"
     inkscape:window-width="1920"
     inkscape:window-height="1017"
     inkscape:window-x="-8"
     inkscape:window-y="-8"
     inkscape:window-maximized="1" />
  <metadata
     id="metadata5">
    <rdf:RDF>
      <cc:Work
         rdf:about="">
        <dc:format>image/svg+xml</dc:format>
        <dc:type
           rdf:resource="http://purl.org/dc/dcmitype/StillImage" />
        <dc:title></dc:title>
      </cc:Work>
    </rdf:RDF>
  </metadata>
  <g
     inkscape:label="Layer 1"
     inkscape:groupmode="layer"
     id="layer1"
     transform="translate(-76.0327,-0.02706426)">
    <g
       transform="translate(-32.771918,-145.83571)"
       id="layer1-4"
       inkscape:label="Layer 1">
      <g
         transform="matrix(0.26458333,0,0,0.26458333,463.14586,-147.05707)"
         id="g837">
        <g
           transform="matrix(3.1437,0,0,3.1437,-4835.7,-1027.6)"
           id="g835">
          <g
             transform="matrix(1.25,0,0,-1.25,1102.5,727.74)"
             id="g819" />
          <g
             transform="matrix(1.25,0,0,-1.25,1103.2,710.77)"
             id="g823">
            <path
               style="fill:#f79410"
               inkscape:connector-curvature="0"
               d="M 0,0 V 0.61 H -0.159 L -0.343,0.191 -0.526,0.61 h -0.16 V 0 h 0.113 v 0.46 l 0.172,-0.397 h 0.117 l 0.172,0.398 V 0 Z m -1.009,0 v 0.506 h 0.204 v 0.103 h -0.52 V 0.506 h 0.204 V 0 Z"
               id="path821" />
          </g>
          <path
             style="fill:#ff5f00"
             inkscape:connector-curvature="0"
             d="m 1080.6,714.05 h -17.202 v -30.915 h 17.202 z"
             id="path825" />
          <g
             transform="matrix(1.25,0,0,-1.25,1064.5,698.59)"
             id="g829">
            <path
               style="fill:#eb001b"
               inkscape:connector-curvature="0"
               d="m 0,0 c 0,5.017 2.349,9.486 6.007,12.366 -2.675,2.106 -6.051,3.363 -9.72,3.363 -8.686,0 -15.727,-7.042 -15.727,-15.729 0,-8.687 7.041,-15.729 15.727,-15.729 3.669,0 7.045,1.257 9.72,3.363 C 2.349,-9.486 0,-5.017 0,0"
               id="path827" />
          </g>
          <g
             transform="matrix(1.25,0,0,-1.25,1103.8,698.59)"
             id="g833">
            <path
               style="fill:#f79e1b"
               inkscape:connector-curvature="0"
               d="m 0,0 c 0,-8.687 -7.041,-15.729 -15.727,-15.729 -3.669,0 -7.045,1.257 -9.721,3.363 3.659,2.88 6.008,7.349 6.008,12.366 0,5.017 -2.349,9.486 -6.008,12.366 2.676,2.106 6.052,3.363 9.721,3.363 C -7.041,15.729 0,8.687 0,0"
               id="path831" />
          </g>
        </g>
      </g>
    </g>
    <g
       transform="matrix(0.44723853,0,0,0.44723853,67.838396,-10.578303)"
       id="g4158">
      <polygon
         style="fill:#00579f"
         id="polygon9"
         points="109.296,24.995 127.582,24.995 116.145,95.719 97.858,95.719 " />
      <path
         style="fill:#00579f"
         inkscape:connector-curvature="0"
         id="path11"
         d="m 182.437,26.724 c -3.607,-1.431 -9.328,-3.011 -16.402,-3.011 -18.059,0 -30.776,9.63 -30.854,23.398 -0.15,10.158 9.105,15.8 16.027,19.187 7.075,3.461 9.48,5.72 9.48,8.805 -0.072,4.738 -5.717,6.922 -10.982,6.922 -7.301,0 -11.213,-1.126 -17.158,-3.762 l -2.408,-1.13 -2.559,15.876 c 4.289,1.954 12.191,3.688 20.395,3.764 19.188,0 31.68,-9.481 31.828,-24.153 0.073,-8.051 -4.814,-14.22 -15.35,-19.261 -6.396,-3.236 -10.313,-5.418 -10.313,-8.729 0.075,-3.01 3.313,-6.093 10.533,-6.093 5.945,-0.151 10.313,1.278 13.622,2.708 l 1.654,0.751 z" />
      <path
         style="fill:#00579f"
         inkscape:connector-curvature="0"
         id="path13"
         d="m 206.742,70.664 c 1.506,-4.063 7.301,-19.788 7.301,-19.788 -0.076,0.151 1.503,-4.138 2.406,-6.771 l 1.278,6.094 c 0,0 3.463,16.929 4.215,20.465 -2.858,0 -11.588,0 -15.2,0 z M 229.315,24.995 H 215.17 c -4.362,0 -7.676,1.278 -9.558,5.868 l -27.163,64.855 h 19.188 c 0,0 3.159,-8.729 3.838,-10.609 2.105,0 20.771,0 23.479,0 0.525,2.483 2.182,10.609 2.182,10.609 h 16.932 z" />
      <path
         style="fill:#00579f"
         inkscape:connector-curvature="0"
         id="path15"
         d="M 82.584,24.995 64.675,73.222 62.718,63.441 C 59.407,52.155 49.023,39.893 37.435,33.796 l 16.404,61.848 h 19.338 l 28.744,-70.649 z" />
      <path
         style="fill:#faa61a"
         inkscape:connector-curvature="0"
         id="path17"
         d="M 48.045,24.995 H 18.623 l -0.301,1.429 c 22.951,5.869 38.151,20.016 44.396,37.02 L 56.322,30.94 c -1.053,-4.517 -4.289,-5.796 -8.277,-5.945 z" />
    </g>
  </g>
</svg>
