<!-- Generated by IcoMoon.io -->
<svg version="1.1" xmlns="http://www.w3.org/2000/svg" width="1024" height="1024" viewBox="0 0 1024 1024">
<title></title>
<g id="icomoon-ignore">
</g>
<path d="M881.297 593.145c33.967 34.184 69.82 66.345 100.284 103.977 13.457 16.725 26.202 33.98 35.947 53.389 13.811 27.588 1.301 57.946-22.699 59.593l-149.175-0.068c-38.477 3.29-69.171-12.676-94.98-39.791-20.655-21.687-39.782-44.766-59.639-67.183-8.145-9.165-16.666-17.783-26.846-24.597-20.365-13.628-38.042-9.455-49.681 12.437-11.853 22.268-14.541 46.925-15.706 71.744-1.596 36.211-12.215 45.73-47.501 47.386-75.409 3.665-146.979-8.094-213.463-47.305-58.615-34.573-104.069-83.375-143.631-138.622-77.029-107.582-136.017-225.796-189.034-347.323-11.934-27.38-3.206-42.077 26.101-42.598 48.667-0.975 97.327-0.905 146.050-0.069 19.779 0.298 32.874 11.992 40.511 31.254 26.33 66.735 58.548 130.228 98.988 189.081 10.769 15.668 21.751 31.337 37.389 42.365 17.3 12.211 30.472 8.164 38.61-11.701 5.164-12.596 7.425-26.163 8.589-39.653 3.856-46.413 4.364-92.746-2.399-138.995-4.152-28.864-19.924-47.55-47.866-53.012-14.258-2.785-12.136-8.254-5.232-16.643 11.991-14.469 23.269-23.475 45.75-23.475h168.596c26.543 5.4 32.435 17.69 36.070 45.22l0.145 193.041c-0.29 10.657 5.163 42.282 23.787 49.336 14.903 5.022 24.73-7.269 33.668-17.011 40.367-44.162 69.18-96.352 94.916-150.394 11.422-23.763 21.244-48.442 30.763-73.099 7.049-18.297 18.116-27.3 38.11-26.902l162.266 0.149c4.809 0 9.677 0.073 14.336 0.895 27.345 4.803 34.837 16.927 26.394 44.45-13.308 43.18-39.198 79.165-64.512 115.316-27.059 38.595-56 75.87-82.833 114.694-24.657 35.454-22.699 53.325 7.927 84.117z"></path>
</svg>
