<?xml version="1.0" encoding="UTF-8"?>
<svg width="76px" height="94px" viewBox="0 0 76 94" version="1.1" xmlns="http://www.w3.org/2000/svg" xmlns:xlink="http://www.w3.org/1999/xlink">
    <!-- Generator: sketchtool 52.3 (67297) - http://www.bohemiancoding.com/sketch -->
    <title>C14D7FD0-8564-4FB0-A5FB-35A29C89C85A</title>
    <desc>Created with sketchtool.</desc>
    <g id="Page-1" stroke="none" stroke-width="1" fill="none" fill-rule="evenodd">
        <g id="Main_ru_kak_rabotaet28@2x" transform="translate(-1114.000000, -243.000000)">
            <g id="iconfinder_accessory-clock-fashion-watch-time_3187811" transform="translate(1102.000000, 240.000000)">
                <g id="_x36_4px_boxes">
                    <rect id="Rectangle" x="0" y="0" width="100" height="100"></rect>
                </g>
                <g id="Production" transform="translate(11.500000, 3.125000)" fill="#D9B680" fill-rule="nonzero">
                    <path d="M63.445,20.30625 C62.1165625,5.225 57.66375,0 41.5823438,0 C25.3701563,0 21.0317188,5.4015625 19.7225,20.385625 C14.3575,24.8259375 10.39625,30.8778125 8.50421875,37.786875 C3.641875,38.844375 0.9559375,39.0575 1,46.875 C0.95609375,54.6803125 3.57984375,54.88625 8.50421875,55.963125 C10.3871875,62.8265625 14.3117188,68.8353125 19.6217188,73.2665625 C20.9859375,89.169375 25.7101563,93.75 41.4846875,93.75 C57.20125,93.75 61.965,89.2578125 63.3475,73.510625 C71.0684375,67.20875 76,57.6234375 76,46.871875 C76,36.16625 71.1109375,26.608125 63.445,20.30625 Z M41.6371875,69.2903125 C29.2440625,69.2903125 19.2067188,59.2834375 19.2067188,46.8934375 C19.2067188,34.5153125 29.2439063,24.45375 41.6371875,24.45375 C54.0151563,24.45375 64.043125,34.4940625 64.043125,46.871875 C64.0432813,59.2590625 54.0151563,69.2903125 41.6371875,69.2903125 Z M53.0509375,47.0734375 L46.41625,43.2159375 L44.79875,33.8990625 C44.1853125,30.379375 39.0039063,30.3759375 38.3992188,33.8990625 L36.2171875,46.435625 L36.1957813,46.5696875 L36.1804688,46.64625 C35.8417188,48.9471875 37.4621875,51.0865625 39.8059375,51.4190625 L50.914375,53 C54.4084375,53.5115625 56.1284375,48.8609375 53.0509375,47.0734375 Z" id="Shape"></path>
                </g>
            </g>
        </g>
    </g>
</svg>