<svg width="51" height="48" viewBox="0 0 51 48" fill="none" xmlns="http://www.w3.org/2000/svg">
<path fill-rule="evenodd" clip-rule="evenodd" d="M0 38.7445C0 26.1414 16.3253 24.1223 16.3253 17.1808C16.3253 14.1285 13.9651 12.3069 11.0142 12.3069C8.35902 12.3069 5.99883 14.1777 4.72039 16.4423L0 13.2916C2.016 9.55001 5.94966 6.30078 11.5551 6.30078C17.6529 6.30078 22.9142 10.0423 22.9142 16.6392C22.9142 27.8639 7.27727 29.7839 6.98224 36.3814H23.4551V41.846H0.295024C0.0983415 40.7137 0 39.7291 0 38.7445Z" fill="white"/>
<mask id="mask0" mask-type="alpha" maskUnits="userSpaceOnUse" x="25" y="0" width="26" height="28">
<path fill-rule="evenodd" clip-rule="evenodd" d="M25.5542 0H50.3369V27.0522H25.5542V0Z" fill="white"/>
</mask>
<g mask="url(#mask0)">
<path fill-rule="evenodd" clip-rule="evenodd" d="M37.995 21.44C34.8481 21.44 32.0454 19.1262 32.0454 15.8769C32.0454 12.8246 34.3564 10.8062 35.3398 9.96862C39.4701 11.9385 43.8955 13.2185 43.8955 16.4185C43.8955 19.4708 41.2403 21.44 37.995 21.44ZM45.8623 9.28C46.8457 8.19631 49.7468 4.60246 49.7468 0.565538C49.7468 0.372308 49.7278 0.188308 49.7179 0H43.4351C43.5095 0.333538 43.5513 0.684923 43.5513 1.05785C43.5513 3.91385 41.7812 6.12923 41.1419 6.91631C37.3066 5.24246 33.4713 3.91385 33.4713 0.614769C33.4713 0.404923 33.4904 0.200615 33.5186 0H27.25C27.2408 0.171692 27.226 0.343385 27.226 0.516308C27.226 3.56862 28.7503 5.68554 30.8646 7.31077C29.4885 8.29538 25.5542 11.4954 25.5542 16.3692C25.5542 22.2769 30.4719 27.0523 37.995 27.0523C45.8132 27.0523 50.3369 22.0308 50.3369 16.6646C50.3369 13.0702 48.4192 10.904 45.8623 9.28Z" fill="white"/>
</g>
<path fill-rule="evenodd" clip-rule="evenodd" d="M29.3017 31.5953H46.608C47.1292 33.9904 47.1292 36.4698 46.608 38.8649C43.5668 39.9461 40.7536 39.135 38.0824 38.3246C35.4112 37.5135 32.2003 36.6175 29.2304 38.3246C28.8112 36.0987 28.8352 33.8119 29.3017 31.5953ZM31.2655 47.9996H44.6036C44.946 47.0046 45.3824 46.0212 45.8403 44.9959C47.4033 41.4969 49.3216 37.2858 47.9005 30.7276C47.8262 30.3972 47.5287 30.1646 47.19 30.1726H28.719C28.3804 30.1646 28.0835 30.3972 28.0085 30.7276C26.5881 37.3424 28.3785 41.4113 29.9981 44.9535C30.4744 45.9953 30.9213 46.9929 31.2655 47.9996Z" fill="#D9B680"/>
</svg>
